/* XPM */
static char * close_pressed_xpm[] = {
"16 26 101 2",
"  	c None",
". 	c #141415",
"+ 	c #6F7072",
"@ 	c #58595C",
"# 	c #57585B",
"$ 	c #56575A",
"% 	c #565759",
"& 	c #555659",
"* 	c #545558",
"= 	c #515255",
"- 	c #545557",
"; 	c #4F5052",
"> 	c #313132",
", 	c #1C1C1D",
"' 	c #161617",
") 	c #303132",
"! 	c #535457",
"~ 	c #494A4C",
"{ 	c #181819",
"] 	c #1B1B1C",
"^ 	c #1B1C1D",
"/ 	c #48484B",
"( 	c #525356",
"_ 	c #4F5053",
": 	c #1C1D1E",
"< 	c #19191A",
"[ 	c #242526",
"} 	c #4E4F52",
"| 	c #333335",
"1 	c #171718",
"2 	c #B5B5B5",
"3 	c #7F7F80",
"4 	c #1D1D1E",
"5 	c #79797A",
"6 	c #B9B9BA",
"7 	c #313233",
"8 	c #515254",
"9 	c #1F1F20",
"0 	c #191A1A",
"a 	c #696969",
"b 	c #BABABB",
"c 	c #818181",
"d 	c #7D7D7D",
"e 	c #727272",
"f 	c #1A1A1B",
"g 	c #1E1E1F",
"h 	c #505154",
"i 	c #1A1B1C",
"j 	c #6A6A6B",
"k 	c #737474",
"l 	c #7E7E7F",
"m 	c #BABABA",
"n 	c #858586",
"o 	c #161717",
"p 	c #575859",
"q 	c #222323",
"r 	c #181919",
"s 	c #1A1B1B",
"t 	c #7A7A7B",
"u 	c #6B6B6C",
"v 	c #676767",
"w 	c #202121",
"x 	c #57585A",
"y 	c #3C3D3F",
"z 	c #151617",
"A 	c #AAAAAA",
"B 	c #666767",
"C 	c #636364",
"D 	c #ABACAC",
"E 	c #3A3B3D",
"F 	c #4D4E51",
"G 	c #616265",
"H 	c #222223",
"I 	c #161718",
"J 	c #212122",
"K 	c #616264",
"L 	c #4D4E50",
"M 	c #555658",
"N 	c #616263",
"O 	c #242525",
"P 	c #151516",
"Q 	c #181818",
"R 	c #606162",
"S 	c #4C4D4F",
"T 	c #6C6D6E",
"U 	c #474849",
"V 	c #282929",
"W 	c #282829",
"X 	c #464748",
"Y 	c #4B4C4F",
"Z 	c #4C4D50",
"` 	c #5D5E60",
" .	c #696A6D",
"..	c #707173",
"+.	c #6A6B6D",
"@.	c #5D5E61",
"#.	c #4B4C4E",
"$.	c #4A4B4D",
"%.	c #48494C",
"&.	c #48494B",
"*.	c #47484A",
". . . . . . . . . . . . . . . . ",
"+ + + + + + + + + + + + + + + + ",
"@ # # # # # # # # # # # # # # # ",
"$ $ $ $ $ $ $ $ $ $ $ $ $ $ $ $ ",
"% % % % % % % % % % % % % % % % ",
"& & & & & & & & & & & & & & & & ",
"* * * * * * * = = * * * * * * * ",
"- - - - ; > , ' ' , ) ; - - - - ",
"! ! ! ~ , { ] , , ] { ^ / ! ! ! ",
"( ( _ : < [ ^ ^ ^ ^ [ < , } ( ( ",
"= = | 1 ] 2 3 4 , 5 6 4 1 7 = = ",
"8 8 9 0 ] a b c d b e ] f g 8 8 ",
"h h 1 i ] ] j b b k ] ] i ' h h ",
"_ ( { f i ^ l m m n 4 i f o ( _ ",
"; p q r s t m u v m c s < w x ; ",
"} % y z f A B f f C D , z E $ } ",
"F } G H I f f f f f f I J K } F ",
"L L M N O P Q < < Q P q R M L L ",
"S S S M T U V ] ] W X T M S S S ",
"Y Y Y Y Z `  .....+.@.F Y Y Y Y ",
"#.#.#.#.#.#.#.#.#.#.#.#.#.#.#.#.",
"$.$.$.$.$.$.$.$.$.$.$.$.$.$.$.$.",
"~ ~ ~ ~ ~ ~ ~ ~ ~ ~ ~ ~ ~ ~ ~ ~ ",
"%.%.%.%.%.%.%.%.%.%.%.%.%.%.%.%.",
"&.&.&.&.&.&.&.&.&.&.&.&.&.&.&.&.",
"*.*.*.*.*.*.*.*.*.*.*.*.*.*.*.*."};
