/* XPM */
static char * close_prelight_xpm[] = {
"16 26 105 2",
"  	c None",
". 	c #141415",
"+ 	c #6F7072",
"@ 	c #58595C",
"# 	c #57585B",
"$ 	c #56575A",
"% 	c #565759",
"& 	c #555659",
"* 	c #545558",
"= 	c #525356",
"- 	c #545557",
"; 	c #505153",
"> 	c #343436",
", 	c #212122",
"' 	c #1B1B1C",
") 	c #202021",
"! 	c #333435",
"~ 	c #535457",
"{ 	c #4A4B4D",
"] 	c #1D1E1F",
"^ 	c #222324",
"/ 	c #202122",
"( 	c #49494C",
"_ 	c #4F5053",
": 	c #1F1F20",
"< 	c #2F2F30",
"[ 	c #222223",
"} 	c #2E2E2F",
"| 	c #515255",
"1 	c #353638",
"2 	c #1C1D1E",
"3 	c #212223",
"4 	c #F6F6F6",
"5 	c #AEAEAF",
"6 	c #242426",
"7 	c #A3A3A4",
"8 	c #FEFEFE",
"9 	c #252526",
"0 	c #333436",
"a 	c #515254",
"b 	c #232324",
"c 	c #1F2021",
"d 	c #8C8C8D",
"e 	c #FFFFFF",
"f 	c #B1B1B1",
"g 	c #A8A8A9",
"h 	c #9B9B9B",
"i 	c #505154",
"j 	c #1C1C1D",
"k 	c #212123",
"l 	c #909191",
"m 	c #9D9E9E",
"n 	c #202022",
"o 	c #AAABAB",
"p 	c #B7B7B7",
"q 	c #252527",
"r 	c #4F5052",
"s 	c #575859",
"t 	c #262627",
"u 	c #1E1F20",
"v 	c #A6A6A7",
"w 	c #929292",
"x 	c #8A8A8B",
"y 	c #AFB0B0",
"z 	c #57585A",
"A 	c #4E4F52",
"B 	c #3F4042",
"C 	c #1A1B1C",
"D 	c #E7E7E8",
"E 	c #8C8C8C",
"F 	c #858586",
"G 	c #EBEBEB",
"H 	c #242425",
"I 	c #3D3E40",
"J 	c #4D4E51",
"K 	c #616265",
"L 	c #252627",
"M 	c #1B1C1D",
"N 	c #4D4E50",
"O 	c #555658",
"P 	c #626364",
"Q 	c #272829",
"R 	c #1A1A1B",
"S 	c #1D1D1E",
"T 	c #1D1E1E",
"U 	c #272728",
"V 	c #606163",
"W 	c #4C4D4F",
"X 	c #6C6D6E",
"Y 	c #4A4B4C",
"Z 	c #2B2C2D",
"` 	c #1F2020",
" .	c #494A4B",
"..	c #4B4C4F",
"+.	c #4C4D50",
"@.	c #5D5E60",
"#.	c #696A6D",
"$.	c #707173",
"%.	c #6A6B6D",
"&.	c #5D5E61",
"*.	c #4B4C4E",
"=.	c #494A4C",
"-.	c #48494C",
";.	c #48494B",
">.	c #47484A",
". . . . . . . . . . . . . . . . ",
"+ + + + + + + + + + + + + + + + ",
"@ # # # # # # # # # # # # # # # ",
"$ $ $ $ $ $ $ $ $ $ $ $ $ $ $ $ ",
"% % % % % % % % % % % % % % % % ",
"& & & & & & & & & & & & & & & & ",
"* * * * * * * = = * * * * * * * ",
"- - - - ; > , ' ' ) ! ; - - - - ",
"~ ~ ~ { , ] , ^ ^ , ] / ( ~ ~ ~ ",
"= = _ , : < [ [ [ [ } : / _ = = ",
"| | 1 2 3 4 5 6 ^ 7 8 9 2 0 | | ",
"a a b c 3 d e f g e h 3 ) [ a a ",
"i i j , k k l e e m k k , ' i i ",
"_ = 2 n , ^ o e e p q , / ' = _ ",
"r s t u , v e w x e y , u 9 z r ",
"A % B C / D E / / F G H ' I $ A ",
"J A K L M ) ) ) ) ) ) M 9 K A J ",
"N N O P Q R S : : T R U V O N N ",
"W W W O X Y Z ` ` Z  .X O W W W ",
"........+.@.#.$.$.%.&.J ........",
"*.*.*.*.*.*.*.*.*.*.*.*.*.*.*.*.",
"{ { { { { { { { { { { { { { { { ",
"=.=.=.=.=.=.=.=.=.=.=.=.=.=.=.=.",
"-.-.-.-.-.-.-.-.-.-.-.-.-.-.-.-.",
";.;.;.;.;.;.;.;.;.;.;.;.;.;.;.;.",
">.>.>.>.>.>.>.>.>.>.>.>.>.>.>.>."};
