/* XPM */
static char * close_active_xpm[] = {
"16 26 105 2",
"  	c None",
". 	c #141415",
"+ 	c #6F7072",
"@ 	c #58595C",
"# 	c #57585B",
"$ 	c #56575A",
"% 	c #565759",
"& 	c #555659",
"* 	c #545558",
"= 	c #525356",
"- 	c #545557",
"; 	c #515254",
"> 	c #393A3B",
", 	c #272728",
"' 	c #202021",
") 	c #262728",
"! 	c #535457",
"~ 	c #4C4D4F",
"{ 	c #272829",
"] 	c #1D1E1F",
"^ 	c #1A1A1B",
"/ 	c #1E1E1F",
"( 	c #272729",
"_ 	c #4B4C4F",
": 	c #505154",
"< 	c #28292A",
"[ 	c #1C1C1D",
"} 	c #323233",
"| 	c #7C7D7F",
"1 	c #979799",
"2 	c #808082",
"3 	c #38393A",
"4 	c #515255",
"5 	c #3B3C3E",
"6 	c #1E1F20",
"7 	c #2D2D2E",
"8 	c #88898B",
"9 	c #79797C",
"0 	c #707174",
"a 	c #78797B",
"b 	c #89898B",
"c 	c #2F3031",
"d 	c #3A3B3D",
"e 	c #2C2C2D",
"f 	c #1C1D1D",
"g 	c #6A6B6C",
"h 	c #6C6D6F",
"i 	c #6A6B6D",
"j 	c #6C6D6E",
"k 	c #2B2B2C",
"l 	c #252527",
"m 	c #1B1B1C",
"n 	c #656568",
"o 	c #6F6F72",
"p 	c #242526",
"q 	c #4F5053",
"r 	c #1B1C1D",
"s 	c #5B5C5E",
"t 	c #5F6063",
"u 	c #5D5E61",
"v 	c #252627",
"w 	c #4F5052",
"x 	c #575859",
"y 	c #303132",
"z 	c #424344",
"A 	c #424345",
"B 	c #57585A",
"C 	c #4E4F52",
"D 	c #47474A",
"E 	c #222324",
"F 	c #212223",
"G 	c #4E4E51",
"H 	c #212122",
"I 	c #454648",
"J 	c #4D4E51",
"K 	c #616265",
"L 	c #323335",
"M 	c #212123",
"N 	c #37383A",
"O 	c #47484A",
"P 	c #48484B",
"Q 	c #38383B",
"R 	c #313233",
"S 	c #4D4E50",
"T 	c #555658",
"U 	c #646567",
"V 	c #353536",
"W 	c #242425",
"X 	c #232425",
"Y 	c #333435",
"Z 	c #646566",
"` 	c #6B6C6E",
" .	c #535455",
"..	c #39393B",
"+.	c #2E2F30",
"@.	c #525354",
"#.	c #4C4D50",
"$.	c #5D5E60",
"%.	c #696A6D",
"&.	c #707173",
"*.	c #4B4C4E",
"=.	c #4A4B4D",
"-.	c #494A4C",
";.	c #48494C",
">.	c #48494B",
". . . . . . . . . . . . . . . . ",
"+ + + + + + + + + + + + + + + + ",
"@ # # # # # # # # # # # # # # # ",
"$ $ $ $ $ $ $ $ $ $ $ $ $ $ $ $ ",
"% % % % % % % % % % % % % % % % ",
"& & & & & & & & & & & & & & & & ",
"* * * * * * * = = * * * * * * * ",
"- - - - ; > , ' ' ) > ; - - - - ",
"! ! ! ~ { ] ^ / / ^ ] ( _ ! ! ! ",
"= = : < [ } | 1 1 2 3 [ { : = = ",
"4 4 5 6 7 8 9 0 0 a b c 6 d 4 4 ",
"; ; e f g h i i i i h j [ k ; ; ",
": : l m h n n n n n n o m p : : ",
"q = ) r s t t t t t t u m v = q ",
"w x y / z s s s s s s A / c B w ",
"C % D E F G & & & & C H E I $ C ",
"J C K L M 6 N O P Q 6 H R K C J ",
"S S T U V W ' / / ' X Y Z T S S ",
"~ ~ ~ T `  ...+.+.3 @.j T ~ ~ ~ ",
"_ _ _ _ #.$.%.&.&.i u J _ _ _ _ ",
"*.*.*.*.*.*.*.*.*.*.*.*.*.*.*.*.",
"=.=.=.=.=.=.=.=.=.=.=.=.=.=.=.=.",
"-.-.-.-.-.-.-.-.-.-.-.-.-.-.-.-.",
";.;.;.;.;.;.;.;.;.;.;.;.;.;.;.;.",
">.>.>.>.>.>.>.>.>.>.>.>.>.>.>.>.",
"O O O O O O O O O O O O O O O O "};
