/* XPM */
static char * maximize_pressed_xpm[] = {
"16 26 99 2",
"  	c None",
". 	c #141415",
"+ 	c #6F7072",
"@ 	c #58595C",
"# 	c #57585B",
"$ 	c #56575A",
"% 	c #565759",
"& 	c #555659",
"* 	c #545558",
"= 	c #515255",
"- 	c #545557",
"; 	c #4F5052",
"> 	c #313132",
", 	c #1C1C1D",
"' 	c #161617",
") 	c #303132",
"! 	c #535457",
"~ 	c #494A4C",
"{ 	c #181819",
"] 	c #1B1B1C",
"^ 	c #1B1C1D",
"/ 	c #48484B",
"( 	c #525356",
"_ 	c #4F5053",
": 	c #1C1D1E",
"< 	c #19191A",
"[ 	c #262627",
"} 	c #1E1E1F",
"| 	c #4E4F52",
"1 	c #333335",
"2 	c #171718",
"3 	c #79797A",
"4 	c #BABABB",
"5 	c #A6A7A7",
"6 	c #313233",
"7 	c #515254",
"8 	c #1F1F20",
"9 	c #191A1A",
"0 	c #222223",
"a 	c #797979",
"b 	c #1A1A1B",
"c 	c #505154",
"d 	c #1A1B1C",
"e 	c #949494",
"f 	c #232324",
"g 	c #777778",
"h 	c #1D1E1F",
"i 	c #B9B9B9",
"j 	c #959596",
"k 	c #222324",
"l 	c #1D1D1E",
"m 	c #161717",
"n 	c #575859",
"o 	c #222323",
"p 	c #181919",
"q 	c #1A1B1B",
"r 	c #BABABA",
"s 	c #939494",
"t 	c #212222",
"u 	c #1B1C1C",
"v 	c #202121",
"w 	c #57585A",
"x 	c #3C3D3F",
"y 	c #151617",
"z 	c #8D8D8E",
"A 	c #AFAFB0",
"B 	c #888989",
"C 	c #1E1F20",
"D 	c #3A3B3D",
"E 	c #4D4E51",
"F 	c #616265",
"G 	c #161718",
"H 	c #212122",
"I 	c #616264",
"J 	c #4D4E50",
"K 	c #555658",
"L 	c #616263",
"M 	c #242525",
"N 	c #151516",
"O 	c #181818",
"P 	c #606162",
"Q 	c #4C4D4F",
"R 	c #6C6D6E",
"S 	c #474849",
"T 	c #282929",
"U 	c #282829",
"V 	c #464748",
"W 	c #4B4C4F",
"X 	c #4C4D50",
"Y 	c #5D5E60",
"Z 	c #696A6D",
"` 	c #707173",
" .	c #6A6B6D",
"..	c #5D5E61",
"+.	c #4B4C4E",
"@.	c #4A4B4D",
"#.	c #48494C",
"$.	c #48494B",
"%.	c #47484A",
". . . . . . . . . . . . . . . . ",
"+ + + + + + + + + + + + + + + + ",
"@ # # # # # # # # # # # # # # # ",
"$ $ $ $ $ $ $ $ $ $ $ $ $ $ $ $ ",
"% % % % % % % % % % % % % % % % ",
"& & & & & & & & & & & & & & & & ",
"* * * * * * * = = * * * * * * * ",
"- - - - ; > , ' ' , ) ; - - - - ",
"! ! ! ~ , { ] , , ] { ^ / ! ! ! ",
"( ( _ : < ^ : [ [ [ } < , | ( ( ",
"= = 1 2 ] ] , 3 4 4 5 , 2 6 = = ",
"7 7 8 9 ] 0 ] , a 4 4 } b } 7 7 ",
"c c 2 d ] e f ] , g 4 h d ' c c ",
"_ ( { b d i j k d ^ g l b m ( _ ",
"; n o p q i r s t q u q < v w ; ",
"| % x y b z A A B C b b y D $ | ",
"E | F 0 G b b b b b b G H I | E ",
"J J K L M N O < < O N o P K J J ",
"Q Q Q K R S T ] ] U V R K Q Q Q ",
"W W W W X Y Z ` `  ...E W W W W ",
"+.+.+.+.+.+.+.+.+.+.+.+.+.+.+.+.",
"@.@.@.@.@.@.@.@.@.@.@.@.@.@.@.@.",
"~ ~ ~ ~ ~ ~ ~ ~ ~ ~ ~ ~ ~ ~ ~ ~ ",
"#.#.#.#.#.#.#.#.#.#.#.#.#.#.#.#.",
"$.$.$.$.$.$.$.$.$.$.$.$.$.$.$.$.",
"%.%.%.%.%.%.%.%.%.%.%.%.%.%.%.%."};
