/* XPM */
static char * maximize_prelight_xpm[] = {
"16 26 99 2",
"  	c None",
". 	c #141415",
"+ 	c #6F7072",
"@ 	c #58595C",
"# 	c #57585B",
"$ 	c #56575A",
"% 	c #565759",
"& 	c #555659",
"* 	c #545558",
"= 	c #525356",
"- 	c #545557",
"; 	c #505153",
"> 	c #343436",
", 	c #212122",
"' 	c #1B1B1C",
") 	c #202021",
"! 	c #333435",
"~ 	c #535457",
"{ 	c #4A4B4D",
"] 	c #1D1E1F",
"^ 	c #222324",
"/ 	c #202122",
"( 	c #49494C",
"_ 	c #4F5053",
": 	c #1F1F20",
"< 	c #222223",
"[ 	c #232425",
"} 	c #313132",
"| 	c #272829",
"1 	c #515255",
"2 	c #353638",
"3 	c #1C1D1E",
"4 	c #212223",
"5 	c #A5A5A5",
"6 	c #FFFFFF",
"7 	c #E4E4E4",
"8 	c #333436",
"9 	c #515254",
"0 	c #232324",
"a 	c #1F2021",
"b 	c #2B2B2C",
"c 	c #252526",
"d 	c #505154",
"e 	c #1C1C1D",
"f 	c #212123",
"g 	c #C9C9CA",
"h 	c #2C2D2E",
"i 	c #222224",
"j 	c #A2A2A2",
"k 	c #242526",
"l 	c #202022",
"m 	c #FCFCFC",
"n 	c #CBCCCC",
"o 	c #2C2C2E",
"p 	c #242426",
"q 	c #4F5052",
"r 	c #575859",
"s 	c #262627",
"t 	c #1E1F20",
"u 	c #C9C9C9",
"v 	c #57585A",
"w 	c #4E4F52",
"x 	c #3F4042",
"y 	c #1A1B1C",
"z 	c #BFBFC0",
"A 	c #F0F0F0",
"B 	c #BABABB",
"C 	c #262728",
"D 	c #3D3E40",
"E 	c #4D4E51",
"F 	c #616265",
"G 	c #252627",
"H 	c #1B1C1D",
"I 	c #4D4E50",
"J 	c #555658",
"K 	c #626364",
"L 	c #1A1A1B",
"M 	c #1D1D1E",
"N 	c #1D1E1E",
"O 	c #272728",
"P 	c #606163",
"Q 	c #4C4D4F",
"R 	c #6C6D6E",
"S 	c #4A4B4C",
"T 	c #2B2C2D",
"U 	c #1F2020",
"V 	c #494A4B",
"W 	c #4B4C4F",
"X 	c #4C4D50",
"Y 	c #5D5E60",
"Z 	c #696A6D",
"` 	c #707173",
" .	c #6A6B6D",
"..	c #5D5E61",
"+.	c #4B4C4E",
"@.	c #494A4C",
"#.	c #48494C",
"$.	c #48494B",
"%.	c #47484A",
". . . . . . . . . . . . . . . . ",
"+ + + + + + + + + + + + + + + + ",
"@ # # # # # # # # # # # # # # # ",
"$ $ $ $ $ $ $ $ $ $ $ $ $ $ $ $ ",
"% % % % % % % % % % % % % % % % ",
"& & & & & & & & & & & & & & & & ",
"* * * * * * * = = * * * * * * * ",
"- - - - ; > , ' ' ) ! ; - - - - ",
"~ ~ ~ { , ] , ^ ^ , ] / ( ~ ~ ~ ",
"= = _ , : < [ } } } | : / _ = = ",
"1 1 2 3 4 4 ^ 5 6 6 7 ^ 3 8 1 1 ",
"9 9 0 a 4 b 4 ^ 5 6 6 c ) < 9 9 ",
"d d e , f g h f i j 6 k , ' d d ",
"_ = 3 l , m n o , < j p / ' = _ ",
"q r s t , m 6 u b , < , t c v q ",
"w % x y / z A A B C / / ' D $ w ",
"E w F G H ) ) ) ) ) ) H c F w E ",
"I I J K | L M : : N L O P J I I ",
"Q Q Q J R S T U U T V R J Q Q Q ",
"W W W W X Y Z ` `  ...E W W W W ",
"+.+.+.+.+.+.+.+.+.+.+.+.+.+.+.+.",
"{ { { { { { { { { { { { { { { { ",
"@.@.@.@.@.@.@.@.@.@.@.@.@.@.@.@.",
"#.#.#.#.#.#.#.#.#.#.#.#.#.#.#.#.",
"$.$.$.$.$.$.$.$.$.$.$.$.$.$.$.$.",
"%.%.%.%.%.%.%.%.%.%.%.%.%.%.%.%."};
