<?xml version="1.0" encoding="UTF-8" standalone="no"?>
<svg
   xmlns:dc="http://purl.org/dc/elements/1.1/"
   xmlns:cc="http://creativecommons.org/ns#"
   xmlns:rdf="http://www.w3.org/1999/02/22-rdf-syntax-ns#"
   xmlns:svg="http://www.w3.org/2000/svg"
   xmlns="http://www.w3.org/2000/svg"
   xmlns:sodipodi="http://sodipodi.sourceforge.net/DTD/sodipodi-0.dtd"
   xmlns:inkscape="http://www.inkscape.org/namespaces/inkscape"
   viewBox="0 0 380.999993 500"
   version="1.1"
   id="svg8"
   sodipodi:docname="qt4-logo.svg"
   inkscape:version="0.92.3 (2405546, 2018-03-11)"><metadata
   id="metadata14">
  <rdf:RDF>
    <cc:Work
       rdf:about="">
      <dc:format>image/svg+xml</dc:format>
      <dc:type
         rdf:resource="http://purl.org/dc/dcmitype/StillImage" />
    </cc:Work>
  </rdf:RDF>
</metadata>
<defs
   id="defs12" />
<sodipodi:namedview
   pagecolor="#ffffff"
   bordercolor="#666666"
   borderopacity="1"
   objecttolerance="10"
   gridtolerance="10"
   guidetolerance="10"
   inkscape:pageopacity="0"
   inkscape:pageshadow="2"
   inkscape:window-width="1328"
   inkscape:window-height="737"
   id="namedview10"
   showgrid="false"
   inkscape:zoom="0.472"
   inkscape:cx="-440.85593"
   inkscape:cy="250"
   inkscape:window-x="38"
   inkscape:window-y="0"
   inkscape:window-maximized="1"
   inkscape:current-layer="svg8" />
<path
   d="m57.42 0c-2.039 0-4.061.112-6.06.328-1.976.185-3.822.488-5.646.902-3.913.832-7.701 2.077-11.307 3.693-.673.302-1.338.618-1.998.945-.042.021-.085.038-.127.059-.549.256-1.081.516-1.576.779-.638.339-1.297.737-1.967 1.16-.098.058-.197.117-.295.176-.122.074-.246.144-.367.219-7.955 4.862-14.681 11.69-19.402 20-.235.404-.458.817-.686 1.229-.261.473-.522.946-.771 1.428-.498.915-.967 1.848-1.41 2.799-1.397 2.58-2.458 4.415-3.264 8.193l-2.01 5.588-.02 16.85c-.182 8.993-.297 22.565-.367 44.02 0 .036 0 .093 0 .129-.171 34.381-.114 86.32-.113 166.23 0 .376 0 .608 0 .984 0 .894 0 1.457 0 2.357v195.32l-.031 26.777h.004v.063l1.223-.229c0 0 .002.002.002.002.001 0 .05-.008.051-.008.001 0 .001.004.002.004.012 0 .257-.039.281-.041.038.025.076.045.115.045 1.357 0 224.63-37.4 318.44-53.35 9.951-1.691 16.84-2.944 22.04-4.254 1.897-.407 3.251-.73 3.873-.934.315-.103.669-.241 1.053-.404.022-.008.085-.022.104-.029.64-.243 1.275-.514 1.906-.799 4.23-1.692 7.154-3.798 10.561-6.998 1.052-.941 2.072-1.953 3.07-3.01 6.707-6.82 12.599-17.191 15.666-27.449.091-.261.195-.516.283-.777.121-.357.23-.74.336-1.168l1.521-4.332.02-12.971c.161-6.385.265-16.14.336-29.797.008-1.505.02-2.402.027-4.02 0-.076.002-.113.002-.189 0-.004 0-.01 0-.014.019-4.434.028-10.606.041-15.953.016-4.03.025-9.01.035-13.531.001-.37.001-.588.002-.961.001-.414-.001-1.267 0-1.686 0-.247 0-.564 0-.813.046-24.05.038-53.938.037-94.21v-.441-.059-1.318c0-.504 0-.921 0-1.424v-145.15l.037-21.52h-.004v-.26-.02l-.033-.008v-.121l-2.25-.52c-1.989-.46-106.04-17.56-262.01-43.06-10.347-1.692-19.473-3.133-27.465-4.352-1.527-.248-5.815-.951-7.06-1.152-8.402-1.36-14.777-2.21-19.994-2.598-.035-.004-.237-.035-.264-.037-.278-.024-.556-.039-.834-.059-.677-.065-1.384-.137-1.914-.176-.117-.011-.164-.01-.268-.02-.189-.013-.393-.028-.561-.037-.147-.008-.387-.031-.484-.031-.096 0-.191.005-.287.006-.012 0-.058-.006-.068-.006-.03 0-.062.002-.092.002-.019 0-.05-.002-.068-.002"
   fill="#c01616"
   id="path2" />
<g
   fill="#c01616path d="
   id="g4" />

m147.53 93.56c3.282-.006 5.961.011 8.273.064 2.032.16 4.047.345 6.01.586 20.743 3.116 37.08 11.481 49.33 25.291 15.984 18.02 25.788 47.39 28.768 85.31.15 3.034.276 6.267.377 9.656.29 11.978.287 26.13-.018 38-1.655 30.891-6.411 55.13-14.504 73.61-1.042 2.317-2.127 4.583-3.287 6.768-2.074 3.906-4.268 7.477-6.602 10.754-6.614 8.885-17.436 18.14-26.49 22.525-.904.437-1.643.79-2.373 1.145l-3.271 1.525-1.889.699.027.168-.666.311.029.113-.008.004.426 1.619c-.211 1.734.832 4.288 2.629 9.17.842 2.288 1.812 4.27 2.92 6 .03.047.062.092.092.139.299.459.609.899.93 1.32.119.158.239.316.361.469.228.282.464.552.703.816.136.152.263.319.402.465.005.006.009.01.014.016.179.228.354.433.521.611.904.962 1.958 1.736 3.252 2.357 1.588.922 3.372 1.593 5.346 2.068.014.003.029.006.043.01.561.134 1.139.253 1.734.354.093.016.189.03.283.045.525.083 1.058.159 1.609.217.261.028.532.047.799.07.419.035.835.074 1.27.096.777.041 1.574.066 2.402.066h1.242l3.811.287v2.973l-.219 12.137-.23 12.688c-.016.048-.028.102-.045.148-.324.894-.828 1.503-1.615 1.936-.021.011-.043.022-.064.033-.065.035-.138.065-.207.098l-.863.143c-1.788.293-6.77.988-11.07 1.545-1.382.179-2.717.32-4.03.441-1.707.136-3.369.244-4.959.299-.166.004-.332.009-.498.012-.611.018-1.21.026-1.805.031-.844.005-1.659-.005-2.475-.016-.397-.008-.806-.007-1.195-.021-.406-.015-.793-.045-1.191-.066-7.656-.511-14.255-2.405-20.662-5.82-10.676-5.69-19.229-19.517-24.49-39.594l-1.912-7.299-.514-2.453-.141-.043-.018-.064-7.266-2.256c-4.119-1.279-8.02-2.928-11.725-4.932-9.345-5.185-17.562-12.837-24.393-22.682-.014-.02-.027-.039-.041-.059-.162-.234-.32-.476-.48-.713-9.895-14.946-16.804-35.21-20.783-60.889-1.223-8.243-2.146-16.916-2.762-25.791-.916-17.83-.654-45.22.643-60.58.182-1.9.38-3.78.594-5.643 5.447-43.912 19.672-73.1 42.32-87.13.839-.52 1.693-1.01 2.555-1.488.399-.22.797-.443 1.201-.654.364-.191.732-.376 1.1-.561.746-.372 1.497-.738 2.26-1.082.004-.002.008-.004.012-.006.248-.112.502-.215.752-.324.59-.257 1.187-.504 1.787-.744.534-.213 1.071-.42 1.613-.619 4.874-1.697 10.18-2.87 15.73-3.521 2.675-.113 5.961-.151 10.598-.16&quot;/&gt;<g
   style="fill:#ffffff"
   id="g8"
   transform="matrix(1.3105778,0,0,1.0975339,-81.143005,-29.55402)">
  <path
     inkscape:connector-curvature="0"
     id="path4"
     d="m 147.53,93.56 c 3.282,-0.006 5.961,0.011 8.273,0.064 2.032,0.16 4.047,0.345 6.01,0.586 20.743,3.116 37.08,11.481 49.33,25.291 15.984,18.02 25.788,47.39 28.768,85.31 0.15,3.034 0.276,6.267 0.377,9.656 0.29,11.978 0.287,26.13 -0.018,38 -1.655,30.891 -6.411,55.13 -14.504,73.61 -1.042,2.317 -2.127,4.583 -3.287,6.768 -2.074,3.906 -4.268,7.477 -6.602,10.754 -6.614,8.885 -17.436,18.14 -26.49,22.525 -0.904,0.437 -1.643,0.79 -2.373,1.145 l -3.271,1.525 -1.889,0.699 0.027,0.168 -0.666,0.311 0.029,0.113 -0.008,0.004 0.426,1.619 c -0.211,1.734 0.832,4.288 2.629,9.17 0.842,2.288 1.812,4.27 2.92,6 0.03,0.047 0.062,0.092 0.092,0.139 0.299,0.459 0.609,0.899 0.93,1.32 0.119,0.158 0.239,0.316 0.361,0.469 0.228,0.282 0.464,0.552 0.703,0.816 0.136,0.152 0.263,0.319 0.402,0.465 0.005,0.006 0.009,0.01 0.014,0.016 0.179,0.228 0.354,0.433 0.521,0.611 0.904,0.962 1.958,1.736 3.252,2.357 1.588,0.922 3.372,1.593 5.346,2.068 0.014,0.003 0.029,0.006 0.043,0.01 0.561,0.134 1.139,0.253 1.734,0.354 0.093,0.016 0.189,0.03 0.283,0.045 0.525,0.083 1.058,0.159 1.609,0.217 0.261,0.028 0.532,0.047 0.799,0.07 0.419,0.035 0.835,0.074 1.27,0.096 0.777,0.041 1.574,0.066 2.402,0.066 h 1.242 l 3.811,0.287 v 2.973 l -0.219,12.137 -0.23,12.688 c -0.016,0.048 -0.028,0.102 -0.045,0.148 -0.324,0.894 -0.828,1.503 -1.615,1.936 -0.021,0.011 -0.043,0.022 -0.064,0.033 -0.065,0.035 -0.138,0.065 -0.207,0.098 l -0.863,0.143 c -1.788,0.293 -6.77,0.988 -11.07,1.545 -1.382,0.179 -2.717,0.32 -4.03,0.441 -1.707,0.136 -3.369,0.244 -4.959,0.299 -0.166,0.004 -0.332,0.009 -0.498,0.012 -0.611,0.018 -1.21,0.026 -1.805,0.031 -0.844,0.005 -1.659,-0.005 -2.475,-0.016 -0.397,-0.008 -0.806,-0.007 -1.195,-0.021 -0.406,-0.015 -0.793,-0.045 -1.191,-0.066 -7.656,-0.511 -14.255,-2.405 -20.662,-5.82 -10.676,-5.69 -19.229,-19.517 -24.49,-39.594 l -1.912,-7.299 -0.514,-2.453 -0.141,-0.043 -0.018,-0.064 -7.266,-2.256 c -4.119,-1.279 -8.02,-2.928 -11.725,-4.932 -9.345,-5.185 -17.562,-12.837 -24.393,-22.682 -0.014,-0.02 -0.027,-0.039 -0.041,-0.059 -0.162,-0.234 -0.32,-0.476 -0.48,-0.713 -9.895,-14.946 -16.804,-35.21 -20.783,-60.889 -1.223,-8.243 -2.146,-16.916 -2.762,-25.791 -0.916,-17.83 -0.654,-45.22 0.643,-60.58 0.182,-1.9 0.38,-3.78 0.594,-5.643 5.447,-43.912 19.672,-73.1 42.32,-87.13 0.839,-0.52 1.693,-1.01 2.555,-1.488 0.399,-0.22 0.797,-0.443 1.201,-0.654 0.364,-0.191 0.732,-0.376 1.1,-0.561 0.746,-0.372 1.497,-0.738 2.26,-1.082 0.004,-0.002 0.008,-0.004 0.012,-0.006 0.248,-0.112 0.502,-0.215 0.752,-0.324 0.59,-0.257 1.187,-0.504 1.787,-0.744 0.534,-0.213 1.071,-0.42 1.613,-0.619 4.874,-1.697 10.18,-2.87 15.73,-3.521 2.675,-0.113 5.961,-0.151 10.598,-0.16" />
  <path
     inkscape:connector-curvature="0"
     id="path6-3"
     d="m 280.05,110.34 c 2.182,0.167 6.498,0.596 11.539,1.162 5.751,0.646 10.05,1.109 12.03,1.305 l 1.693,0.219 c 0.086,0.111 0.17,0.707 0.246,1.678 l 0.242,21.914 v 0.008 l 0.232,21.1 v 0.002 3.01 0.002 0.021 0.014 l 3.25,0.553 c 1.788,0.304 8.09,0.858 14,1.23 l 8.799,0.555 1.951,0.143 v 14.768 0.09 c -10e-4,13.441 -0.151,14.668 -1.75,14.352 -0.962,-0.19 -7.262,-0.576 -14,-0.857 l -11.43,-0.477 -0.82,-0.059 v 0.023 0.027 0.563 0.002 0.006 0.014 0.021 0.148 0.053 0.061 0.066 l -0.111,-0.006 0.111,22.631 v 35.619 2.521 0.256 c 0,23.633 -0.005,38.838 0.236,48.916 0.127,6.294 0.316,10.186 0.604,12.529 0.022,0.262 0.046,0.425 0.068,0.576 0.119,1.388 0.247,2.46 0.396,2.898 0.155,0.454 0.338,0.866 0.535,1.26 0.898,2.639 2.233,3.243 4.221,4.271 0.175,0.09 0.366,0.168 0.557,0.248 1.876,1.025 3.053,1.298 5.852,0.965 0.356,-0.03 0.741,-0.071 1.154,-0.127 3.553,-0.216 7.703,-1.134 11.877,-2.719 2.75,-1.044 5.349,-1.898 5.777,-1.898 0.411,0 0.626,5.52 0.508,12.383 l -0.008,0.387 -0.221,10.967 -0.041,1.914 c -0.061,0.268 -0.125,0.52 -0.201,0.715 l -2.215,0.953 -4.928,1.879 c -4.03,1.537 -11.752,3.697 -17.16,4.799 -2.296,0.468 -4.468,0.824 -6.58,1.121 -0.541,0.064 -1.082,0.128 -1.619,0.182 -0.798,0.065 -1.596,0.122 -2.383,0.172 -0.827,0.052 -1.641,0.095 -2.432,0.127 -1.554,0.063 -3.01,0.098 -4.375,0.102 -4.677,-0.081 -8.789,-0.582 -11.479,-1.545 -0.918,-0.329 -1.79,-0.691 -2.639,-1.07 -2.452,-1.098 -4.635,-2.415 -6.572,-3.996 -2.954,-2.545 -5.403,-5.811 -7.416,-9.838 -2.638,-5.278 -4.01,-8.595 -4.721,-19.301 -0.317,-7.361 -0.475,-22.453 -0.658,-45.678 l -0.119,-15.771 -0.002,-0.336 c 0,-1.241 -0.004,-2.128 -0.004,-3.414 v -1.307 c 0.001,-13.591 0.013,-24.01 -0.008,-32.479 l -0.008,-31.965 h -3.275 c -1.156,-0.377 -2.709,0 -4.807,0 h -2.627 l -2,-0.227 c -0.07,-0.083 -0.139,-0.169 -0.201,-0.264 l -0.088,-4.717 v -10.668 -0.209 -0.023 -0.016 -0.006 -0.016 -0.453 c 0,-9.08 0.151,-13.462 0.594,-15.12 l 8.322,0.475 8.555,0.488 0.377,0.029 0.473,-1.779 0.445,-1.613 c 0.514,-1.861 3.097,-12.608 5.742,-23.883 2.385,-10.165 4.219,-17.827 4.658,-19.508 0.058,-0.214 0.079,-0.274 0.123,-0.428 0.243,-0.293 0.565,-0.512 1.012,-0.662 0.206,-0.026 0.455,-0.043 0.717,-0.059" />
</g>
<path
   style="fill:#c01616;stroke-width:1.12903523;fill-opacity:1"
   inkscape:connector-curvature="0"
   id="path10"
   d="m 120.31759,129.32781 c -13.8618,0.0469 -24.563576,5.84637 -31.871476,17.15424 -1.899323,2.8147 -3.536567,6.03105 -4.943998,9.75313 -0.0042,0.0117 -0.0076,0.0235 -0.01357,0.0352 -1.2909,3.28758 -2.393954,6.86897 -3.306932,10.74394 -2.115221,8.98481 -3.5269,24.10194 -4.150442,40.52328 -0.03392,0.97626 -0.08493,1.89806 -0.135874,2.90107 -0.348209,9.22312 -0.373682,18.06055 -0.118955,26.46818 0.26497,12.47326 1.017432,24.0841 2.321765,32.6635 2.41434,15.88664 6.157282,28.09894 11.450338,37.06111 0.43824,0.77677 0.879855,1.53407 1.336768,2.24808 0.543551,0.84952 1.188997,1.71137 1.899331,2.57275 3.285182,4.29715 7.066184,7.61019 11.383775,10.00741 0.16984,0.0939 0.3329,0.18422 0.49768,0.27692 0.0679,0.0352 0.13587,0.0704 0.19703,0.1056 2.0257,1.11237 4.16011,2.03887 6.41139,2.76883 1.20937,0.39191 2.353,0.68994 3.50786,0.91993 2.31226,0.5597 4.32573,0.71811 7.17201,0.63245 3.07049,0.0235 6.20348,-0.28865 9.29027,-0.93636 0.007,-9.4e-4 0.0116,-0.003 0.017,-0.004 0.43993,-0.0821 0.86797,-0.18774 1.29941,-0.28396 12.0929,-2.70875 20.90894,-10.05904 26.95736,-22.70585 0.75925,-1.52751 1.44717,-3.10559 2.05152,-4.72884 0.0509,-0.15137 0.10194,-0.32503 0.16984,-0.47874 2.62344,-6.89525 4.60023,-15.0777 5.98336,-24.63853 3.76198,-26.02064 3.04196,-79.292 -1.33677,-98.98601 -1.02592,-4.61151 -2.26215,-8.85903 -3.7117,-12.74338 -0.002,-0.005 -0.004,-0.008 -0.005,-0.0117 -2.58419,-7.77247 -5.97656,-13.49868 -10.54009,-18.14961 -7.94247,-8.8318 -18.5301,-13.22001 -31.8132,-13.17319" />
</svg>
