<?xml version="1.0" encoding="UTF-8" standalone="no"?>
<svg
   xmlns:dc="http://purl.org/dc/elements/1.1/"
   xmlns:cc="http://creativecommons.org/ns#"
   xmlns:rdf="http://www.w3.org/1999/02/22-rdf-syntax-ns#"
   xmlns:svg="http://www.w3.org/2000/svg"
   xmlns="http://www.w3.org/2000/svg"
   xmlns:sodipodi="http://sodipodi.sourceforge.net/DTD/sodipodi-0.dtd"
   xmlns:inkscape="http://www.inkscape.org/namespaces/inkscape"
   fill="#419236"
   viewBox="0 0 38 38"
   version="1.1"
   id="svg8"
   sodipodi:docname="sublime-text.svg"
   inkscape:version="0.92.3 (2405546, 2018-03-11)">
  <metadata
     id="metadata14">
    <rdf:RDF>
      <cc:Work
         rdf:about="">
        <dc:format>image/svg+xml</dc:format>
        <dc:type
           rdf:resource="http://purl.org/dc/dcmitype/StillImage" />
      </cc:Work>
    </rdf:RDF>
  </metadata>
  <defs
     id="defs12" />
  <sodipodi:namedview
     pagecolor="#ffffff"
     bordercolor="#666666"
     borderopacity="1"
     objecttolerance="10"
     gridtolerance="10"
     guidetolerance="10"
     inkscape:pageopacity="0"
     inkscape:pageshadow="2"
     inkscape:window-width="1328"
     inkscape:window-height="737"
     id="namedview10"
     showgrid="false"
     inkscape:zoom="6.2105263"
     inkscape:cx="-28.580509"
     inkscape:cy="19"
     inkscape:window-x="38"
     inkscape:window-y="0"
     inkscape:window-maximized="1"
     inkscape:current-layer="svg8" />
  <path
     d="m8.417 6c-.831 0-1.616.335-2.215.877-.599.542-1.012 1.292-1.1 2.123l-2.102 20c-.007.066.053.103.051.168 0 .002.002.004.002.006.103 1.567 1.336 2.826 2.93 2.826h.297 25.404.299c1.596 0 2.832-1.262 2.932-2.832 0-.002.002-.004.002-.006.002-.061.055-.099.049-.162l-2.102-20c-.087-.831-.5-1.581-1.1-2.123-.599-.542-1.386-.877-2.217-.877h-21.13"
     fill="#bdbdbd"
     id="path2" />
  <path
     style="fill:#c01616;fill-opacity:1"
     d="M 10.099609 4 C 9.2686094 4 8.4837656 4.3349531 7.8847656 4.8769531 C 7.2857656 5.4189531 6.8731562 6.169 6.7851562 7 L 4.9980469 24 C 4.9910469 24.063 5.044875 24.102109 5.046875 24.162109 C 5.046875 24.164109 5.0488281 24.165969 5.0488281 24.167969 C 5.1488281 25.737969 6.3834688 27 7.9804688 27 L 8.2792969 27 L 29.683594 27 L 29.980469 27 C 31.574469 27 32.807156 25.740828 32.910156 24.173828 C 32.910156 24.171828 32.912109 24.169969 32.912109 24.167969 C 32.909109 24.102969 32.971844 24.066 32.964844 24 L 31.179688 7 C 31.092688 6.169 30.676172 5.4189531 30.076172 4.8769531 C 29.477172 4.3349531 28.692328 4 27.861328 4 L 10.099609 4 z M 19.025391 7.5136719 L 19.021484 7.5175781 C 19.740484 7.5555781 20.443016 7.6527813 21.041016 7.9257812 C 21.855016 8.2907813 22.49775 8.8094688 22.96875 9.4804688 C 23.44675 10.150469 23.706953 10.912625 23.751953 11.765625 L 21.892578 11.765625 C 21.89265 11.764247 21.892508 11.763095 21.892578 11.761719 L 21.357422 11.761719 C 21.357422 11.110719 21.152188 10.604094 20.742188 10.246094 C 20.446506 9.983459 20.043237 9.8190082 19.671875 9.7578125 C 19.500031 9.7335293 19.374408 9.7163093 19.28125 9.7128906 C 19.16325 9.7028906 19.140672 9.703125 19.013672 9.703125 C 18.867672 9.703125 18.8205 9.7018438 18.6875 9.7148438 C 18.6875 9.7148437 18.55416 9.7307826 18.443359 9.7441406 C 17.98346 9.7993724 17.645391 9.9272434 17.34375 10.160156 C 16.94675 10.459156 16.746094 10.856563 16.746094 11.351562 C 16.746094 11.813563 16.977453 12.198719 17.439453 12.511719 C 17.908453 12.824719 18.596953 13.117625 19.501953 13.390625 C 21.168953 13.891625 22.382531 14.515812 23.144531 15.257812 C 23.906531 15.999812 24.287109 16.92425 24.287109 18.03125 C 24.287109 19.26125 23.821625 20.226688 22.890625 20.929688 C 22.262375 21.400031 21.47455 21.698168 20.552734 21.851562 C 20.110765 21.926243 19.646079 21.976562 19.130859 21.976562 C 18.857359 21.976563 18.589984 21.9645 18.330078 21.939453 C 17.546469 21.864313 16.816078 21.676656 16.142578 21.378906 C 15.243578 20.975906 14.557031 20.427469 14.082031 19.730469 C 13.613031 19.033469 13.378906 18.226594 13.378906 17.308594 L 13.623047 17.308594 L 16.074219 17.308594 L 16.318359 17.308594 C 16.318359 18.855594 17.249266 19.623531 19.072266 19.644531 C 19.098266 19.645531 19.106813 19.660156 19.132812 19.660156 C 19.159812 19.660156 19.168312 19.644531 19.195312 19.644531 C 19.221312 19.645531 19.227906 19.660156 19.253906 19.660156 C 19.949906 19.660156 20.499297 19.522188 20.904297 19.242188 C 21.309297 18.956187 21.525734 18.560734 21.552734 18.052734 C 21.581734 17.498734 21.408203 17.07425 21.033203 16.78125 C 20.658203 16.48125 19.973609 16.16975 18.974609 15.84375 C 17.976609 15.51175 17.189281 15.186188 16.613281 14.867188 C 15.829281 14.431188 15.249953 13.918078 14.876953 13.330078 C 14.503953 12.743078 14.336 12.078844 14.375 11.339844 C 14.415 10.571844 14.665953 9.8880625 15.126953 9.2890625 C 15.593953 8.6840625 16.241406 8.214 17.066406 7.875 C 17.656406 7.635 18.344391 7.5496719 19.025391 7.5136719 z M 16.628906 12.263672 C 16.720172 12.351 16.825563 12.435422 16.945312 12.513672 C 17.187812 12.670172 17.484687 12.820297 17.835938 12.966797 C 17.484687 12.820422 17.187812 12.668219 16.945312 12.511719 C 16.825563 12.433719 16.720172 12.350953 16.628906 12.263672 z M 17.835938 12.966797 C 18.187188 13.113297 18.593234 13.256078 19.052734 13.392578 C 19.899234 13.643078 20.634562 13.923 21.257812 14.234375 C 20.634438 13.923 19.899234 13.641125 19.052734 13.390625 C 18.593234 13.253625 18.187188 13.113172 17.835938 12.966797 z M 22.109375 14.724609 C 22.365281 14.895281 22.592719 15.074266 22.792969 15.259766 C 22.792969 15.259766 22.792969 15.257812 22.792969 15.257812 C 22.592969 15.072312 22.365234 14.895281 22.109375 14.724609 z M 24.039062 18.904297 C 23.995438 19.178547 23.921859 19.436234 23.818359 19.677734 C 23.922359 19.436234 23.995563 19.178547 24.039062 18.904297 z "
     id="path4" />
</svg>
