<?xml version="1.0" encoding="UTF-8" standalone="no"?>
<svg
   xmlns:dc="http://purl.org/dc/elements/1.1/"
   xmlns:cc="http://creativecommons.org/ns#"
   xmlns:rdf="http://www.w3.org/1999/02/22-rdf-syntax-ns#"
   xmlns:svg="http://www.w3.org/2000/svg"
   xmlns="http://www.w3.org/2000/svg"
   xmlns:sodipodi="http://sodipodi.sourceforge.net/DTD/sodipodi-0.dtd"
   xmlns:inkscape="http://www.inkscape.org/namespaces/inkscape"
   fill="#419236"
   height="38"
   version="1.1"
   viewBox="0 0 38 38"
   width="38"
   id="svg8"
   sodipodi:docname="sublime-text-flat.svg"
   inkscape:version="0.92.3 (2405546, 2018-03-11)">
  <metadata
     id="metadata14">
    <rdf:RDF>
      <cc:Work
         rdf:about="">
        <dc:format>image/svg+xml</dc:format>
        <dc:type
           rdf:resource="http://purl.org/dc/dcmitype/StillImage" />
      </cc:Work>
    </rdf:RDF>
  </metadata>
  <defs
     id="defs12" />
  <sodipodi:namedview
     pagecolor="#ffffff"
     bordercolor="#666666"
     borderopacity="1"
     objecttolerance="10"
     gridtolerance="10"
     guidetolerance="10"
     inkscape:pageopacity="0"
     inkscape:pageshadow="2"
     inkscape:window-width="1328"
     inkscape:window-height="737"
     id="namedview10"
     showgrid="false"
     inkscape:zoom="6.2105263"
     inkscape:cx="-28.580509"
     inkscape:cy="19"
     inkscape:window-x="38"
     inkscape:window-y="0"
     inkscape:window-maximized="1"
     inkscape:current-layer="svg8" />
  <path
     style="fill:#c01616;fill-opacity:1"
     d="M 7 3 C 4.784 3 3 4.784 3 7 L 3 31 C 3 33.216 4.784 35 7 35 L 31 35 C 33.216 35 35 33.216 35 31 L 35 7 C 35 4.784 33.216 3 31 3 L 7 3 z M 19.384766 10.552734 C 20.527344 10.552734 21.545898 10.762207 22.439453 11.179688 C 23.333008 11.589844 24.024902 12.171387 24.515625 12.925781 C 25.013672 13.680176 25.261719 14.538574 25.261719 15.498047 L 21.966797 15.498047 C 21.966797 14.765625 21.734863 14.197754 21.273438 13.794922 C 20.812012 13.384766 20.165039 13.179688 19.330078 13.179688 C 18.524414 13.179688 17.897949 13.351074 17.451172 13.695312 C 17.004395 14.032227 16.78125 14.478516 16.78125 15.035156 C 16.78125 15.555176 17.040527 15.992188 17.560547 16.34375 C 18.087891 16.695312 18.86084 17.024414 19.878906 17.332031 C 21.753906 17.895996 23.119629 18.594727 23.976562 19.429688 C 24.833496 20.264648 25.261719 21.305664 25.261719 22.550781 C 25.261719 23.935059 24.73877 25.021484 23.691406 25.8125 C 22.644043 26.596191 21.233398 26.988281 19.460938 26.988281 C 18.230469 26.988281 17.110352 26.765137 16.099609 26.318359 C 15.088867 25.864258 14.315918 25.246582 13.78125 24.462891 C 13.253906 23.679199 12.990234 22.770996 12.990234 21.738281 L 16.296875 21.738281 C 16.296875 23.503418 17.351562 24.384766 19.460938 24.384766 C 20.244629 24.384766 20.857422 24.227051 21.296875 23.912109 C 21.736328 23.589844 21.955078 23.143555 21.955078 22.572266 C 21.955078 21.949707 21.736328 21.474121 21.296875 21.144531 C 20.857422 20.807617 20.066406 20.456055 18.923828 20.089844 C 17.78125 19.716309 16.875488 19.349121 16.208984 18.990234 C 14.392578 18.008789 13.484375 16.687988 13.484375 15.025391 C 13.484375 14.161133 13.727539 13.392578 14.210938 12.71875 C 14.70166 12.037598 15.400391 11.505859 16.308594 11.125 C 17.224121 10.744141 18.249512 10.552734 19.384766 10.552734 z "
     id="rect2" />
</svg>
