<?xml version="1.0" encoding="UTF-8" standalone="no"?>
<svg
   xmlns:dc="http://purl.org/dc/elements/1.1/"
   xmlns:cc="http://creativecommons.org/ns#"
   xmlns:rdf="http://www.w3.org/1999/02/22-rdf-syntax-ns#"
   xmlns:svg="http://www.w3.org/2000/svg"
   xmlns="http://www.w3.org/2000/svg"
   xmlns:sodipodi="http://sodipodi.sourceforge.net/DTD/sodipodi-0.dtd"
   xmlns:inkscape="http://www.inkscape.org/namespaces/inkscape"
   viewBox="0 0 48 48"
   width="48px"
   height="48px"
   version="1.1"
   id="svg8"
   sodipodi:docname="preferences-applications-restart.svg"
   inkscape:version="0.92.3 (2405546, 2018-03-11)">
  <metadata
     id="metadata14">
    <rdf:RDF>
      <cc:Work
         rdf:about="">
        <dc:format>image/svg+xml</dc:format>
        <dc:type
           rdf:resource="http://purl.org/dc/dcmitype/StillImage" />
      </cc:Work>
    </rdf:RDF>
  </metadata>
  <defs
     id="defs12" />
  <sodipodi:namedview
     pagecolor="#ffffff"
     bordercolor="#666666"
     borderopacity="1"
     objecttolerance="10"
     gridtolerance="10"
     guidetolerance="10"
     inkscape:pageopacity="0"
     inkscape:pageshadow="2"
     inkscape:window-width="1328"
     inkscape:window-height="737"
     id="namedview10"
     showgrid="false"
     inkscape:zoom="6.9532167"
     inkscape:cx="10.655826"
     inkscape:cy="16.970563"
     inkscape:window-x="38"
     inkscape:window-y="0"
     inkscape:window-maximized="1"
     inkscape:current-layer="svg8" />
  <path
     style="fill:#c01616;fill-opacity:1"
     d="M 24 3 A 21 21 0 0 0 24 45 A 21 21 0 0 0 24 3 z M 12 13 L 21 13 L 21 22 L 17.908203 18.908203 C 16.710036 20.34045 16 22.184002 16 24.099609 C 16 28.499609 19.6 32.099609 24 32.099609 C 28.4 32.099609 32 28.499609 32 24.099609 C 32 21.999609 31.200781 20.099609 29.800781 18.599609 L 32.699219 15.900391 C 34.799219 18.000391 36 20.999609 36 24.099609 C 36 30.699609 30.6 36.099609 24 36.099609 C 17.4 36.099609 12 30.699609 12 24.099609 C 12 21.11569 13.113301 18.280593 15.083984 16.083984 L 12 13 z M 15.083984 16.083984 L 17.908203 18.908203 C 18.211179 18.546036 18.537096 18.203136 18.900391 17.900391 L 16.400391 14.800781 C 15.921217 15.194388 15.490866 15.630457 15.083984 16.083984 z "
     id="path2" />
</svg>
