<?xml version="1.0" encoding="UTF-8" standalone="no"?>
<svg
   xmlns:dc="http://purl.org/dc/elements/1.1/"
   xmlns:cc="http://creativecommons.org/ns#"
   xmlns:rdf="http://www.w3.org/1999/02/22-rdf-syntax-ns#"
   xmlns:svg="http://www.w3.org/2000/svg"
   xmlns="http://www.w3.org/2000/svg"
   xmlns:sodipodi="http://sodipodi.sourceforge.net/DTD/sodipodi-0.dtd"
   xmlns:inkscape="http://www.inkscape.org/namespaces/inkscape"
   fill="#419236"
   height="48"
   version="1.1"
   viewBox="0 0 48 48"
   width="48"
   id="svg8"
   sodipodi:docname="system-file-manager-linux-mint-color.svg"
   inkscape:version="0.92.3 (2405546, 2018-03-11)">
  <metadata
     id="metadata14">
    <rdf:RDF>
      <cc:Work
         rdf:about="">
        <dc:format>image/svg+xml</dc:format>
        <dc:type
           rdf:resource="http://purl.org/dc/dcmitype/StillImage" />
      </cc:Work>
    </rdf:RDF>
  </metadata>
  <defs
     id="defs12" />
  <sodipodi:namedview
     pagecolor="#ffffff"
     bordercolor="#666666"
     borderopacity="1"
     objecttolerance="10"
     gridtolerance="10"
     guidetolerance="10"
     inkscape:pageopacity="0"
     inkscape:pageshadow="2"
     inkscape:window-width="1328"
     inkscape:window-height="737"
     id="namedview10"
     showgrid="false"
     inkscape:zoom="6.9532167"
     inkscape:cx="22.056126"
     inkscape:cy="17.566278"
     inkscape:window-x="38"
     inkscape:window-y="0"
     inkscape:window-maximized="1"
     inkscape:current-layer="svg8" />
  <path
     style="fill:#c01616;fill-opacity:1"
     d="M 20 5 L 16 9 L 16 13 L 8 13 C 5.79 13 4.0195312 14.79 4.0195312 17 L 4 39 C 4 41.21 5.79 43 8 43 L 40 43 C 42.21 43 44 41.21 44 39 L 44 17 C 44 14.79 42.21 13 40 13 L 32 13 L 32 9 L 28 5 L 20 5 z M 20 9 L 28 9 L 28 13 L 20 13 L 20 9 z M 14.375 20.75 L 24.291016 20.796875 L 27.392578 20.802734 C 31.104653 20.802734 34.320312 23.611567 34.320312 27.320312 L 34.320312 38.630859 L 23.658203 38.630859 C 19.949461 38.630859 16.730469 35.818699 16.730469 32.113281 L 16.726562 27.613281 L 16.726562 26.466797 L 14.375 26.466797 L 14.375 20.75 z M 15.890625 22.271484 L 15.890625 24.955078 L 16.830078 24.955078 C 17.468765 24.955078 18.238281 25.556724 18.238281 26.4375 L 18.244141 32.109375 C 18.244141 34.874238 20.669869 37.115234 23.658203 37.115234 L 31.035156 37.115234 C 31.981044 37.115234 32.808593 36.516309 32.808594 35.595703 L 32.808594 27.320312 C 32.808594 24.555452 30.384251 22.314453 27.392578 22.314453 L 24.287109 22.314453 L 24.287109 22.306641 L 15.890625 22.271484 z M 19.693359 23.953125 L 21.234375 23.953125 L 21.234375 31.869141 C 21.234375 32.92802 21.958164 33.751953 22.804688 33.751953 L 28.066406 33.771484 C 29.163367 33.771484 30.017578 33.015753 30.017578 32.119141 L 30.007812 27.916016 C 30.007813 27.643253 29.919363 27.431106 29.724609 27.234375 C 29.529219 27.037015 29.321398 26.947266 29.052734 26.947266 C 28.778437 26.947266 28.574724 27.036566 28.378906 27.234375 C 28.18415 27.431106 28.095703 27.643253 28.095703 27.916016 L 28.095703 31.513672 L 26.464844 31.513672 L 26.464844 27.916016 C 26.464844 27.643253 26.374441 27.431106 26.179688 27.234375 C 25.983867 27.036565 25.780151 26.947266 25.505859 26.947266 C 25.237197 26.947266 25.03133 27.037015 24.835938 27.234375 C 24.641186 27.431106 24.550781 27.643253 24.550781 27.916016 L 24.550781 31.513672 L 22.919922 31.513672 L 22.919922 27.916016 C 22.91992 27.204372 23.183551 26.57347 23.683594 26.068359 C 24.183887 25.562978 24.805088 25.302734 25.505859 25.302734 C 26.193437 25.302734 26.79208 25.559737 27.277344 26.027344 C 27.764031 25.558965 28.364872 25.302734 29.052734 25.302734 C 29.753501 25.302734 30.376666 25.562978 30.876953 26.068359 C 31.377003 26.573469 31.640625 27.204372 31.640625 27.916016 L 31.646484 32.40625 C 31.569388 33.158081 31.251635 33.825285 30.708984 34.382812 L 30.705078 34.382812 C 30.067033 35.032382 29.277178 35.367188 28.376953 35.367188 L 22.517578 35.367188 C 21.800572 35.290508 21.163442 34.951496 20.632812 34.427734 C 20.011993 33.809317 19.693359 33.04397 19.693359 32.171875 L 19.693359 23.953125 z "
     id="path2" />
</svg>
