/* XPM */
static char * hide_pressed_xpm[] = {
"16 26 83 1",
" 	c None",
".	c #141415",
"+	c #6F7072",
"@	c #58595C",
"#	c #57585B",
"$	c #56575A",
"%	c #565759",
"&	c #555659",
"*	c #545558",
"=	c #515255",
"-	c #545557",
";	c #4F5052",
">	c #313132",
",	c #1C1C1D",
"'	c #161617",
")	c #303132",
"!	c #535457",
"~	c #494A4C",
"{	c #181819",
"]	c #1B1B1C",
"^	c #1B1C1D",
"/	c #48484B",
"(	c #525356",
"_	c #4F5053",
":	c #1C1D1E",
"<	c #19191A",
"[	c #4E4F52",
"}	c #333335",
"|	c #171718",
"1	c #313233",
"2	c #515254",
"3	c #1F1F20",
"4	c #191A1A",
"5	c #282929",
"6	c #1A1A1B",
"7	c #1E1E1F",
"8	c #505154",
"9	c #1A1B1C",
"0	c #B8B8B9",
"a	c #BABABB",
"b	c #1D1E1F",
"c	c #ABABAB",
"d	c #ADADAD",
"e	c #161717",
"f	c #575859",
"g	c #222323",
"h	c #181919",
"i	c #1A1B1B",
"j	c #202121",
"k	c #57585A",
"l	c #3C3D3F",
"m	c #151617",
"n	c #3A3B3D",
"o	c #4D4E51",
"p	c #616265",
"q	c #222223",
"r	c #161718",
"s	c #212122",
"t	c #616264",
"u	c #4D4E50",
"v	c #555658",
"w	c #616263",
"x	c #242525",
"y	c #151516",
"z	c #181818",
"A	c #606162",
"B	c #4C4D4F",
"C	c #6C6D6E",
"D	c #474849",
"E	c #282829",
"F	c #464748",
"G	c #4B4C4F",
"H	c #4C4D50",
"I	c #5D5E60",
"J	c #696A6D",
"K	c #707173",
"L	c #6A6B6D",
"M	c #5D5E61",
"N	c #4B4C4E",
"O	c #4A4B4D",
"P	c #48494C",
"Q	c #48494B",
"R	c #47484A",
"................",
"++++++++++++++++",
"@###############",
"$$$$$$$$$$$$$$$$",
"%%%%%%%%%%%%%%%%",
"&&&&&&&&&&&&&&&&",
"*******==*******",
"----;>,'',);----",
"!!!~,{],,]{^/!!!",
"((_:<^^^^^^<,[((",
"==}|]]]]]]]]|1==",
"2234]555555]6722",
"88|9]0aaaaab9'88",
"_({69cddddd,6e(_",
";fghiiiiiiii<jk;",
"[%lm66666666mn$[",
"o[pqr666666rst[o",
"uuvwxyz<<zygAvuu",
"BBBvCD5]]EFCvBBB",
"GGGGHIJKKLMoGGGG",
"NNNNNNNNNNNNNNNN",
"OOOOOOOOOOOOOOOO",
"~~~~~~~~~~~~~~~~",
"PPPPPPPPPPPPPPPP",
"QQQQQQQQQQQQQQQQ",
"RRRRRRRRRRRRRRRR"};
