/* XPM */
static char * top_left_inactive_xpm[] = {
"16 26 35 1",
" 	c None",
".	c #141416",
"+	c #151516",
"@	c #232326",
"#	c #313133",
"$	c #696A6C",
"%	c #717274",
"&	c #1B1B1C",
"*	c #616263",
"=	c #5A5B5E",
"-	c #57585B",
";	c #595A5D",
">	c #56575A",
",	c #565759",
"'	c #555659",
")	c #545558",
"!	c #545557",
"~	c #535457",
"{	c #525356",
"]	c #515255",
"^	c #515254",
"/	c #505154",
"(	c #4F5053",
"_	c #4F5052",
":	c #4E4F52",
"<	c #4D4E51",
"[	c #4D4E50",
"}	c #4C4D4F",
"|	c #4B4C4F",
"1	c #4B4C4E",
"2	c #4A4B4D",
"3	c #494A4C",
"4	c #48494C",
"5	c #48494B",
"6	c #47484A",
" .++++++++++++++",
"@#$%%%%%%%%%%%%%",
"&*=-------------",
"+;>>>>>>>>>>>>>>",
"+,,,,,,,,,,,,,,,",
"+'''''''''''''''",
"+)))))))))))))))",
"+!!!!!!!!!!!!!!!",
"+~~~~~~~~~~~~~~~",
"+{{{{{{{{{{{{{{{",
"+]]]]]]]]]]]]]]]",
"+^^^^^^^^^^^^^^^",
"+///////////////",
"+(((((((((((((((",
"+_______________",
"+:::::::::::::::",
"+<<<<<<<<<<<<<<<",
"+[[[[[[[[[[[[[[[",
"+}}}}}}}}}}}}}}}",
"+|||||||||||||||",
"+111111111111111",
"+222222222222222",
"+333333333333333",
"+444444444444444",
"+555555555555555",
"+666666666666666"};
