/* XPM */
static char * hide_prelight_xpm[] = {
"16 26 86 1",
" 	c None",
".	c #141415",
"+	c #6F7072",
"@	c #58595C",
"#	c #57585B",
"$	c #56575A",
"%	c #565759",
"&	c #555659",
"*	c #545558",
"=	c #525356",
"-	c #545557",
";	c #505153",
">	c #343436",
",	c #212122",
"'	c #1B1B1C",
")	c #202021",
"!	c #333435",
"~	c #535457",
"{	c #4A4B4D",
"]	c #1D1E1F",
"^	c #222324",
"/	c #202122",
"(	c #49494C",
"_	c #4F5053",
":	c #1F1F20",
"<	c #222223",
"[	c #515255",
"}	c #353638",
"|	c #1C1D1E",
"1	c #212223",
"2	c #333436",
"3	c #515254",
"4	c #232324",
"5	c #1F2021",
"6	c #343536",
"7	c #505154",
"8	c #1C1C1D",
"9	c #212123",
"0	c #FCFCFC",
"a	c #FFFFFF",
"b	c #242526",
"c	c #202022",
"d	c #E9E9E9",
"e	c #EDEDED",
"f	c #232425",
"g	c #4F5052",
"h	c #575859",
"i	c #262627",
"j	c #1E1F20",
"k	c #252526",
"l	c #57585A",
"m	c #4E4F52",
"n	c #3F4042",
"o	c #1A1B1C",
"p	c #3D3E40",
"q	c #4D4E51",
"r	c #616265",
"s	c #252627",
"t	c #1B1C1D",
"u	c #4D4E50",
"v	c #555658",
"w	c #626364",
"x	c #272829",
"y	c #1A1A1B",
"z	c #1D1D1E",
"A	c #1D1E1E",
"B	c #272728",
"C	c #606163",
"D	c #4C4D4F",
"E	c #6C6D6E",
"F	c #4A4B4C",
"G	c #2B2C2D",
"H	c #1F2020",
"I	c #494A4B",
"J	c #4B4C4F",
"K	c #4C4D50",
"L	c #5D5E60",
"M	c #696A6D",
"N	c #707173",
"O	c #6A6B6D",
"P	c #5D5E61",
"Q	c #4B4C4E",
"R	c #494A4C",
"S	c #48494C",
"T	c #48494B",
"U	c #47484A",
"................",
"++++++++++++++++",
"@###############",
"$$$$$$$$$$$$$$$$",
"%%%%%%%%%%%%%%%%",
"&&&&&&&&&&&&&&&&",
"*******==*******",
"----;>,'')!;----",
"~~~{,],^^,]/(~~~",
"==_,:<<<<<<:/_==",
"[[}|11111111|2[[",
"33451!666661)<33",
"778,90aaaaab,'77",
"_=|c,deeeeef/'=_",
"ghij,,,,,,,,jklg",
"m%no////////'p$m",
"qmrst))))))tkrmq",
"uuvwxyz::AyBCvuu",
"DDDvEFGHHGIEvDDD",
"JJJJKLMNNOPqJJJJ",
"QQQQQQQQQQQQQQQQ",
"{{{{{{{{{{{{{{{{",
"RRRRRRRRRRRRRRRR",
"SSSSSSSSSSSSSSSS",
"TTTTTTTTTTTTTTTT",
"UUUUUUUUUUUUUUUU"};
