/* XPM */
static char * menu_pressed_xpm[] = {
"16 26 117 2",
"  	c None",
". 	c #141415",
"+ 	c #6F7072",
"@ 	c #58595C",
"# 	c #57585B",
"$ 	c #56575A",
"% 	c #565759",
"& 	c #555659",
"* 	c #545558",
"= 	c #545557",
"- 	c #515254",
"; 	c #3C3C3E",
"> 	c #242526",
", 	c #181919",
"' 	c #1A1A1B",
") 	c #272829",
"! 	c #404142",
"~ 	c #525355",
"{ 	c #535457",
"] 	c #49494C",
"^ 	c #222324",
"/ 	c #1A1A1A",
"( 	c #242425",
"_ 	c #252527",
": 	c #171719",
"< 	c #292A2B",
"[ 	c #4C4D50",
"} 	c #525356",
"| 	c #494A4D",
"1 	c #242527",
"2 	c #1E1E1F",
"3 	c #2A2A2C",
"4 	c #2E2E30",
"5 	c #313133",
"6 	c #303032",
"7 	c #29292B",
"8 	c #2B2B2D",
"9 	c #4D4E51",
"0 	c #515255",
"a 	c #4F5053",
"b 	c #353537",
"c 	c #1B1B1C",
"d 	c #2C2C2E",
"e 	c #2A2B2D",
"f 	c #3C3D3F",
"g 	c #4A4B4D",
"h 	c #222223",
"i 	c #272729",
"j 	c #777779",
"k 	c #D7D7D8",
"l 	c #CFCFD0",
"m 	c #5F5F61",
"n 	c #252526",
"o 	c #505154",
"p 	c #47474A",
"q 	c #181818",
"r 	c #4D4D4F",
"s 	c #FCFCFC",
"t 	c #FFFFFF",
"u 	c #EEEEEE",
"v 	c #2C2C2F",
"w 	c #141414",
"x 	c #454649",
"y 	c #151516",
"z 	c #6D6D6E",
"A 	c #484849",
"B 	c #303031",
"C 	c #111111",
"D 	c #4F5052",
"E 	c #464749",
"F 	c #1E1E1E",
"G 	c #3F3F41",
"H 	c #ECECED",
"I 	c #D4D4D5",
"J 	c #323234",
"K 	c #2D2D2E",
"L 	c #1B1B1B",
"M 	c #4E4F52",
"N 	c #2D2E2F",
"O 	c #272728",
"P 	c #4C4C4D",
"Q 	c #9E9E9F",
"R 	c #959596",
"S 	c #3E3E40",
"T 	c #404144",
"U 	c #1D1D20",
"V 	c #2D2D2F",
"W 	c #1B1B1D",
"X 	c #4D4E50",
"Y 	c #383839",
"Z 	c #212123",
"` 	c #29292C",
" .	c #2F2F30",
"..	c #28282B",
"+.	c #202022",
"@.	c #3F4041",
"#.	c #4E4F51",
"$.	c #4C4D4F",
"%.	c #505152",
"&.	c #3B3B3D",
"*.	c #2A2A2B",
"=.	c #212223",
"-.	c #262626",
";.	c #2B2B2C",
">.	c #505153",
",.	c #4B4C4F",
"'.	c #414143",
").	c #3B3C3D",
"!.	c #3C3D3E",
"~.	c #424345",
"{.	c #4F4F52",
"].	c #4B4C4E",
"^.	c #535456",
"/.	c #494A4C",
"(.	c #48494C",
"_.	c #48494B",
":.	c #47484A",
". . . . . . . . . . . . . . . . ",
"+ + + + + + + + + + + + + + + + ",
"@ # # # # # # # # # # # # # # # ",
"$ $ $ $ $ $ $ $ $ $ $ $ $ $ $ $ ",
"% % % % % % % % % % % % % % % % ",
"& & & & & & & & & & & & & & & & ",
"* * * * * * * * * * * * * * * * ",
"= = = = - ; > , ' ) ! ~ = = = = ",
"{ { { ] ^ / ( _ _ ^ : < [ { { { ",
"} } | 1 2 3 4 5 6 4 7 ' 8 9 } } ",
"0 a b c d 6 5 5 5 5 6 e : f 0 0 ",
"- g h i 6 5 j k l m 5 6 n ^ - - ",
"o p q 4 5 r s t t u b 5 v w o o ",
"a x y 6 5 z t t t t A 5 B C a a ",
"D E F 4 5 G H t t I J 5 K L D D ",
"M | N O 5 5 P Q R S 5 5 ( 6 M M ",
"9 M T U V 6 5 5 5 5 5 v W g 9 9 ",
"X X X Y Z `  .6 6 4 ..+.@.#.X X ",
"$.$.X %.&.*.n =.h -.;.! >.X $.$.",
",.,.,.[ } $.'.).!.~.{.0 [ ,.,.,.",
"].].].].].#.- ^.^.- X ].].].].].",
"g g g g g g g g g g g g g g g g ",
"/./././././././././././././././.",
"(.(.(.(.(.(.(.(.(.(.(.(.(.(.(.(.",
"_._._._._._._._._._._._._._._._.",
":.:.:.:.:.:.:.:.:.:.:.:.:.:.:.:."};
