<?xml version="1.0" encoding="UTF-8" standalone="no"?>
<svg
   xmlns:dc="http://purl.org/dc/elements/1.1/"
   xmlns:cc="http://creativecommons.org/ns#"
   xmlns:rdf="http://www.w3.org/1999/02/22-rdf-syntax-ns#"
   xmlns:svg="http://www.w3.org/2000/svg"
   xmlns="http://www.w3.org/2000/svg"
   xmlns:xlink="http://www.w3.org/1999/xlink"
   xmlns:sodipodi="http://sodipodi.sourceforge.net/DTD/sodipodi-0.dtd"
   xmlns:inkscape="http://www.inkscape.org/namespaces/inkscape"
   height="48"
   version="1.1"
   width="48"
   id="svg47"
   sodipodi:docname="xfce4-panel-stock.svg"
   inkscape:version="0.92.3 (2405546, 2018-03-11)">
  <metadata
     id="metadata51">
    <rdf:RDF>
      <cc:Work
         rdf:about="">
        <dc:format>image/svg+xml</dc:format>
        <dc:type
           rdf:resource="http://purl.org/dc/dcmitype/StillImage" />
      </cc:Work>
    </rdf:RDF>
  </metadata>
  <sodipodi:namedview
     pagecolor="#ffffff"
     bordercolor="#666666"
     borderopacity="1"
     objecttolerance="10"
     gridtolerance="10"
     guidetolerance="10"
     inkscape:pageopacity="0"
     inkscape:pageshadow="2"
     inkscape:window-width="1324"
     inkscape:window-height="745"
     id="namedview49"
     showgrid="false"
     inkscape:zoom="4.9166667"
     inkscape:cx="1.4237288"
     inkscape:cy="24"
     inkscape:window-x="38"
     inkscape:window-y="0"
     inkscape:window-maximized="1"
     inkscape:current-layer="svg47" />
  <defs
     id="defs21">
    <linearGradient
       id="a">
      <stop
         offset="0"
         stop-color="#fff"
         id="stop2" />
      <stop
         offset="1"
         stop-color="#fff"
         stop-opacity="0"
         id="stop4" />
    </linearGradient>
    <linearGradient
       id="b">
      <stop
         offset="0"
         stop-color="#d3d7cf"
         id="stop7" />
      <stop
         offset="1"
         stop-color="#d3d7cf"
         stop-opacity="0"
         id="stop9" />
    </linearGradient>
    <linearGradient
       id="c">
      <stop
         offset="0"
         stop-color="#888a85"
         id="stop12" />
      <stop
         offset="1"
         stop-color="#888a85"
         stop-opacity="0"
         id="stop14" />
    </linearGradient>
    <linearGradient
       id="d"
       gradientTransform="translate(0 -8)"
       gradientUnits="userSpaceOnUse"
       x1="31.874874"
       x2="47.437664"
       xlink:href="#c"
       y1="17.4375"
       y2="17.4375" />
    <linearGradient
       id="e"
       gradientTransform="translate(-1.5,-8)"
       gradientUnits="userSpaceOnUse"
       x1="31.872892"
       x2="46.704754"
       xlink:href="#b"
       y1="20.6875"
       y2="20.6875" />
    <linearGradient
       id="f"
       gradientTransform="translate(0 -8)"
       gradientUnits="userSpaceOnUse"
       x1="23.99696"
       x2="45.753761"
       xlink:href="#a"
       y1="18.375"
       y2="18.375" />
    <radialGradient
       id="g"
       cx="3.623922"
       cy="2.004983"
       fx="3.623922"
       fy="2.004983"
       gradientTransform="matrix(1e-8 1.125998 -1.627297 0 6.886624 6.5312)"
       gradientUnits="userSpaceOnUse"
       r="23"
       xlink:href="#a" />
  </defs>
  <path
     inkscape:connector-curvature="0"
     style="fill:url(#e);stroke:#a36913;stroke-linejoin:round;stroke-opacity:1"
     id="path23"
     d="m 1,9.5 h 46 v 29 H 1 Z" />
  <path
     inkscape:connector-curvature="0"
     style="opacity:0.4;fill:none;stroke:#a36913;stroke-linejoin:round;stroke-opacity:1"
     id="path25"
     d="m 2,10.5 h 45 v 27 H 2 Z" />
  <path
     inkscape:connector-curvature="0"
     style="fill:none;stroke:#a36913;stroke-linejoin:round;stroke-opacity:1"
     id="path27"
     d="m 2,10.5 h 45 v 27 H 2 Z" />
  <g
     style="fill-opacity:0.5;stroke:#a36913;stroke-opacity:1"
     id="g43"
     transform="matrix(0.20289449,0,0,0.20289449,-24.544102,-54.513084)">
    <path
       inkscape:connector-curvature="0"
       style="fill:#020202;fill-opacity:1;fill-rule:evenodd;stroke:#a36913;stroke-width:1.00000003pt;stroke-opacity:1"
       id="path29"
       transform="translate(4.86564,17.0296)"
       d="m 143.756,326.774 c 0.538,-0.09 13.953,6.991 22.97,9.438 16.079,4.109 30.756,16.476 37.85,23.58 0.526,0.608 6.093,-4.168 11.919,-3.824 7.958,0.482 32.582,7.406 35.872,2.691 1.995,-2.768 1.852,-6.164 4.341,-7.555 1.34,-0.375 -4.981,-11.936 1.737,-15.64 4.79,-2.394 8.849,11.009 10.079,12.511 0.551,0.672 3.474,0.836 3.128,-0.695 -0.375,-1.663 -5.103,-14.524 0.695,-16.682 9.417,-3.729 7.748,16.456 7.993,17.03 0.521,1.222 32.797,2.164 34.754,16.682 1.132,7.99 -25.858,18.317 -28.498,20.157 -2.639,1.84 -2.419,4.783 -1.39,6.604 1.183,1.975 9.046,8.641 7.994,11.816 -0.723,1.834 -15.398,-4.888 -16.335,-3.475 -2.137,2.699 10.683,9.455 6.256,14.249 -1.755,1.148 -21.947,-8.454 -21.896,-8.341 -0.542,0.206 -28.532,5.113 -50.046,-1.391 -0.758,-0.214 -13.808,12.606 -15.292,12.165 -2.029,-0.744 2.991,-11.15 2.433,-13.207 -0.912,-1.146 -9.251,4.653 -9.731,1.738 -0.574,-3.831 7.318,-8.235 6.951,-10.774 -2.035,-14.424 0.909,-22.847 5.908,-29.888 1.667,-2.592 -19.592,-18.646 -34.983,-24.982 -15.39,-6.336 -23.624,-11.706 -22.709,-12.207 z" />
    <path
       inkscape:connector-curvature="0"
       style="fill:#ffffff;fill-opacity:1;fill-rule:evenodd;stroke:#a36913;stroke-width:0.60000001pt;stroke-opacity:1"
       id="path31"
       d="m 286.934,392.031 c -0.169,-0.59 10.503,-7.045 12.048,-5.561 2.781,1.008 -11.95,6.31 -12.048,5.561 z" />
    <path
       inkscape:connector-curvature="0"
       style="fill:#ffffff;fill-opacity:1;fill-rule:evenodd;stroke:#a36913;stroke-width:0.60000001pt;stroke-opacity:1"
       id="path33"
       d="m 292.031,397.901 c -0.94,-0.568 6.389,-9.114 8.187,-8.187 2.625,2.608 -8.31,8.39 -8.187,8.187 z" />
    <path
       inkscape:connector-curvature="0"
       style="fill:#020202;fill-opacity:1;fill-rule:evenodd;stroke:#a36913;stroke-width:0.60000001pt;stroke-opacity:1"
       id="path35"
       d="m 320.916,358.358 c -0.891,-0.737 -7.878,10.287 -6.333,11.431 0.929,0.695 6.731,-11.038 6.333,-11.431 z" />
    <ellipse
       style="fill:#ffffff;fill-opacity:1;fill-rule:evenodd;stroke:#a36913;stroke-width:0.60000001pt;stroke-opacity:1"
       id="ellipse37"
       transform="matrix(0.9253,0,0,0.933788,22.0283,24.352)"
       ry="3.398196"
       rx="3.012037"
       cy="374.58655"
       cx="288.86475" />
    <path
       inkscape:connector-curvature="0"
       style="fill:#020202;fill-opacity:1;fill-rule:evenodd;stroke:#a36913;stroke-width:0.60000001pt;stroke-opacity:1"
       id="path39"
       transform="translate(-8.0321,-1.54463)"
       d="m 320.916,358.358 c -0.441,-0.512 -2.781,11.368 -1.699,11.894 0.929,0.695 2.547,-11.276 1.699,-11.894 z" />
    <path
       inkscape:connector-curvature="0"
       style="fill:#ffffff;fill-opacity:1;fill-rule:evenodd;stroke:#a36913;stroke-width:0.60000001pt;stroke-opacity:1"
       id="path41"
       transform="translate(-38.3069,14.983)"
       d="m 321.366,357.908 c -2.771,1.959 1.521,13.045 8.58,6.572 -5.546,0.163 -7.396,-1.461 -8.58,-6.572 z" />
  </g>
</svg>
