<?xml version="1.0" encoding="UTF-8" standalone="no"?>
<svg
   xmlns:dc="http://purl.org/dc/elements/1.1/"
   xmlns:cc="http://creativecommons.org/ns#"
   xmlns:rdf="http://www.w3.org/1999/02/22-rdf-syntax-ns#"
   xmlns:svg="http://www.w3.org/2000/svg"
   xmlns="http://www.w3.org/2000/svg"
   xmlns:sodipodi="http://sodipodi.sourceforge.net/DTD/sodipodi-0.dtd"
   xmlns:inkscape="http://www.inkscape.org/namespaces/inkscape"
   height="48"
   version="1.1"
   width="48"
   id="svg18"
   sodipodi:docname="xfce4-panel-black.svg"
   inkscape:version="0.92.3 (2405546, 2018-03-11)">
  <metadata
     id="metadata24">
    <rdf:RDF>
      <cc:Work
         rdf:about="">
        <dc:format>image/svg+xml</dc:format>
        <dc:type
           rdf:resource="http://purl.org/dc/dcmitype/StillImage" />
      </cc:Work>
    </rdf:RDF>
  </metadata>
  <defs
     id="defs22" />
  <sodipodi:namedview
     pagecolor="#ffffff"
     bordercolor="#666666"
     borderopacity="1"
     objecttolerance="10"
     gridtolerance="10"
     guidetolerance="10"
     inkscape:pageopacity="0"
     inkscape:pageshadow="2"
     inkscape:window-width="1324"
     inkscape:window-height="745"
     id="namedview20"
     showgrid="false"
     inkscape:zoom="4.9166667"
     inkscape:cx="1.4237288"
     inkscape:cy="24"
     inkscape:window-x="38"
     inkscape:window-y="0"
     inkscape:window-maximized="1"
     inkscape:current-layer="svg18" />
  <g
     fill-opacity=".5"
     transform="matrix(.20289449 0 0 .20289449 -23.602998 -54.818373)"
     id="g16"
     style="fill:#a36913;fill-opacity:1"><path
   d="m143.756 326.774c.538-.09 13.953 6.991 22.97 9.438 16.079 4.109 30.756 16.476 37.85 23.58.526.608 6.093-4.168 11.919-3.824 7.958.482 32.582 7.406 35.872 2.691C254.362 355.891 254.219 352.495 256.708 351.104c1.34-.375-4.981-11.936 1.737-15.64 4.79-2.394 8.849 11.009 10.079 12.511.551.672 3.474.836 3.128-.695C271.277 345.617 266.549 332.756 272.347 330.598c9.417-3.729 7.748 16.456 7.993 17.03.521 1.222 32.797 2.164 34.754 16.682 1.132 7.99-25.858 18.317-28.498 20.157-2.639 1.84-2.419 4.783-1.39 6.604 1.183 1.975 9.046 8.641 7.994 11.816-.723 1.834-15.398-4.888-16.335-3.475-2.137 2.699 10.683 9.455 6.256 14.249-1.755 1.148-21.947-8.454-21.896-8.341-.542.206-28.532 5.113-50.046-1.391-.758-.214-13.808 12.606-15.292 12.165-2.029-.744 2.991-11.15 2.433-13.207-.912-1.146-9.251 4.653-9.731 1.738-.574-3.831 7.318-8.235 6.951-10.774-2.035-14.424.909-22.847 5.908-29.888 1.667-2.592-19.592-18.646-34.983-24.982-15.39-6.336-23.624-11.706-22.709-12.207z"
   fill="#a36913"
   fill-opacity="1"
   fill-rule="evenodd"
   stroke="#a36913"
   stroke-width="1pt"
   transform="translate(4.86564 17.0296)"
   id="path2"
   style="fill:#a36913;fill-opacity:1" />
<path
   d="m286.934 392.031c-.169-.59 10.503-7.045 12.048-5.561C301.763 387.478 287.032 392.78 286.934 392.031Z"
   fill="#a36913ill-opacity="
   id="path4"
   style="fill:#a36913;fill-opacity:1" />
1&quot; fill-rule=&quot;evenodd&quot; stroke=&quot;#a36913troke-width=&quot;.6pt&quot;/&gt;<path
   d="m292.031 397.901c-.94-.568 6.389-9.114 8.187-8.187 2.625 2.608-8.31 8.39-8.187 8.187z"
   fill="#a36913ill-opacity="
   id="path6"
   style="fill:#a36913;fill-opacity:1" />
1&quot; fill-rule=&quot;evenodd&quot; stroke=&quot;#a36913troke-width=&quot;.6pt&quot;/&gt;<path
   d="m320.916 358.358c-.891-.737-7.878 10.287-6.333 11.431.929.695 6.731-11.038 6.333-11.431z"
   fill="#a36913"
   fill-opacity="1"
   fill-rule="evenodd"
   stroke="#a36913troke-width="
   id="path8"
   style="fill:#a36913;fill-opacity:1" />
.6pt&quot;/&gt;<ellipse
   cx="288.864746"
   cy="374.586548"
   fill="#a36913ill-opacity="
   id="ellipse10"
   style="fill:#a36913;fill-opacity:1" />
1&quot; fill-rule=&quot;evenodd&quot; rx=&quot;3.012037&quot; ry=&quot;3.398196&quot; stroke=&quot;#a36913troke-width=&quot;.6pt&quot; transform=&quot;matrix(.9253 0 0 .933788 22.0283 24.352)&quot;/&gt;<path
   d="m320.916 358.358c-.441-.512-2.781 11.368-1.699 11.894.929.695 2.547-11.276 1.699-11.894z"
   fill="#a36913"
   fill-opacity="1"
   fill-rule="evenodd"
   stroke="#a36913troke-width="
   id="path12"
   style="fill:#a36913;fill-opacity:1" />
.6pt&quot; transform=&quot;translate(-8.0321 -1.54463)&quot;/&gt;<path
   d="m321.366 357.908c-2.771 1.959 1.521 13.045 8.58 6.572-5.546.163-7.396-1.461-8.58-6.572z"
   fill="#a36913ill-opacity="
   id="path14"
   style="fill:#a36913;fill-opacity:1" />
1&quot; fill-rule=&quot;evenodd&quot; stroke=&quot;#a36913troke-width=&quot;.6pt&quot; transform=&quot;translate(-38.3069 14.983)&quot;/&gt;</g>
</svg>
